<?xml version="1.0" encoding="iso-8859-1"?>
<!-- Generator: Adobe Illustrator 19.0.0, SVG Export Plug-In . SVG Version: 6.00 Build 0)  -->
<svg version="1.1" id="Capa_1" xmlns="http://www.w3.org/2000/svg" xmlns:xlink="http://www.w3.org/1999/xlink" x="0px" y="0px"
	 viewBox="0 0 474.002 474.002" style="enable-background:new 0 0 474.002 474.002;" xml:space="preserve">
<g>
	<g>
		<path d="M344.001,332.571c24-25.145,37.43-58.727,37.43-95.57s-13.43-70.425-37.43-95.57V29.58
			c0.147-16.189-12.858-29.432-29.047-29.579c-0.175-0.002-0.351-0.002-0.526,0H159.574c-16.189-0.144-29.429,12.864-29.573,29.053
			c-0.002,0.175-0.002,0.351,0,0.526v111.852c-24,25.144-37.429,58.726-37.429,95.569s13.429,70.425,37.429,95.569v111.852
			c-0.147,16.189,12.858,29.432,29.047,29.579c0.175,0.002,0.351,0.002,0.526,0h154.854c16.189,0.144,29.429-12.864,29.573-29.053
			c0.002-0.175,0.002-0.351,0-0.526V332.571z M150.001,29.58c-0.156-5.134,3.879-9.422,9.013-9.579c0.187-0.006,0.374-0.006,0.56,0
			h154.854c5.134-0.153,9.42,3.885,9.573,9.019c0.006,0.187,0.005,0.374,0,0.56v20.421h-174V29.58z M150.001,70.001h174v53.508
			c-23.996-17.949-53.18-27.604-83.146-27.508h-7.707c-29.966-0.096-59.151,9.559-83.147,27.508V70.001z M324.001,444.422
			c0.156,5.134-3.879,9.422-9.013,9.579c-0.187,0.006-0.374,0.006-0.56,0H159.574c-5.134,0.153-9.42-3.885-9.573-9.019
			c-0.006-0.187-0.005-0.374,0-0.56v-20.421h174V444.422z M324.001,404.001h-174v-53.508c23.996,17.949,53.181,27.604,83.147,27.508
			h7.707c29.966,0.096,59.15-9.559,83.146-27.508V404.001z M240.855,358.001h-7.707c-66.826,0-121-54.174-121-121
			s54.174-121,121-121h7.707c66.826,0,121,54.174,121,121S307.681,358.001,240.855,358.001z"/>
	</g>
</g>
<g>
	<g>
		<path d="M287.641,233.001h-46.64v-69.208c0-5.523-4.477-10-10-10s-10,4.477-10,10v78.708c0.191,5.718,4.782,10.309,10.5,10.5
			h56.14c5.523,0,10-4.477,10-10C297.641,237.478,293.164,233.001,287.641,233.001z"/>
	</g>
</g>
<g>
</g>
<g>
</g>
<g>
</g>
<g>
</g>
<g>
</g>
<g>
</g>
<g>
</g>
<g>
</g>
<g>
</g>
<g>
</g>
<g>
</g>
<g>
</g>
<g>
</g>
<g>
</g>
<g>
</g>
</svg>
